<svg xmlns="http://www.w3.org/2000/svg" viewBox="0 0 233.21 297.09"><defs><style>.cls-1,.cls-3{fill:#0084d0;stroke:#0084d0;}.cls-1,.cls-2,.cls-3{stroke-miterlimit:10;}.cls-1,.cls-2{stroke-width:6px;}.cls-2{fill:#fff;stroke:#fff;}.cls-3{font-size:76.61px;stroke-width:0.75px;font-family:FiraMono-Regular, Fira Mono;}</style></defs><g id="Layer_2" data-name="Layer 2"><path class="cls-1" d="M48.54,295.55s9.87-8.61,25.79-34.39c6.21-10,7.36-35.92,4.73-52.87-2.51-16.16-8.87-31.74-17.68-41.51-13.71-15.2-28.84-33.61-24.1-85.66,4-43.54,53-68.7,71.9-73.76C143-1.72,191.3,11.29,218,35.49c39.11,35.5,36,71.79,36.26,83.14.13,4.91-6.34,5.8-7.5,14.38-1.36,10,8.28,22.43,8.28,22.43s12.8,14.16,7.19,20.07l-6.72,3.76c-5.39.67.62,12.5,3.75,13.75s3.91,10.39-1.26,12.52c-3,1.26-2.51,3.28-2.51,3.28s1.1,3.8,1.72,5.68.9,6.1-4.72,8-5.32,6.5-5.32,6.5,1.46,18.56-7.1,22.1-26.81,3-41.45-1.16a100.92,100.92,0,0,0-24.11-4.4s-8.4,35.66-2.14,50Z" transform="translate(-33.4 -1.45)"/></g><g id="Layer_3" data-name="Layer 3"><circle class="cls-2" cx="67.49" cy="52.43" r="29.43"/><circle class="cls-2" cx="132.12" cy="109.67" r="29.43"/><circle class="cls-2" cx="89.15" cy="124.58" r="33.38"/><circle class="cls-2" cx="44.5" cy="91.88" r="29.43"/><circle class="cls-2" cx="155.35" cy="55.12" r="23.26"/><circle class="cls-2" cx="117.83" cy="44.77" r="29.43"/><circle class="cls-2" cx="108.26" cy="78.23" r="34.67"/><circle class="cls-2" cx="42.44" cy="127.73" r="18.78"/><circle class="cls-2" cx="161.37" cy="86.2" r="23.26"/><circle class="cls-2" cx="165.18" cy="195.73" r="9.89"/><circle class="cls-2" cx="129.88" cy="170.03" r="13.27"/><circle class="cls-2" cx="197.15" cy="205.62" r="5.93"/></g><g id="Layer_4" data-name="Layer 4"><text class="cls-3" transform="translate(30.39 111.54)">&lt;/&gt;</text></g></svg>